# xmcd
#
# Track frame offsets: 
#        150
#        25725
#        67970
#        116952
#        136609
#        196540
#
# Disc length: 3213 seconds
#
# Revision: 1
# Processed by: cddbd v1.5.2PL0 Copyright (c) Steve Scherf et al.
# Submitted via: ExactAudioCopy v1.0b3
#
DISCID=450c8b06
DTITLE=Keiji Haino  - Black Blues [Violent Version]
DYEAR=2004
DGENRE=Alternative
TTITLE0=Black Petal
TTITLE1=Black Eyes
TTITLE2=Town In Black Fog
TTITLE3=I Don't Want To Know
TTITLE4=Drifting
TTITLE5=See That My Grave Is Kept Clean
EXTD=Electric version of Black Blues. An acoustic version exists with 
EXTD=the same title.
EXTT0=
EXTT1=
EXTT2=
EXTT3=
EXTT4=
EXTT5=
PLAYORDER=
